HIERARCHY
ROOT Root
{
	OFFSET 0.00000 0.00000 0.00000
	CHANNELS 6 Xposition Yposition Zposition Zrotation Xrotation Yrotation
	JOINT Hip
	{
		OFFSET 0 0 0	
		CHANNELS 3 Zrotation Xrotation Yrotation
		JOINT Tummy
		{
			OFFSET 0 0.04 0	
			CHANNELS 3 Zrotation Xrotation Yrotation
			JOINT ChestBottom
			{
				OFFSET 0 0.194 0	
				CHANNELS 3 Zrotation Xrotation Yrotation
				JOINT ChestTop
				{
					OFFSET 0 0.166 0	
					CHANNELS 3 Zrotation Xrotation Yrotation
					JOINT LeftCollar
					{
						OFFSET 0 0.1 0	
						CHANNELS 3 Zrotation Xrotation Yrotation
						JOINT LeftUpperArm
						{
							OFFSET 0.156 -0.02 0.03	
							CHANNELS 3 Zrotation Xrotation Yrotation
							JOINT LeftForeArm
							{
								OFFSET 0.035 -0.27 -0.01	
								CHANNELS 3 Zrotation Xrotation Yrotation
								JOINT LeftHand
								{
									OFFSET 0.01 -0.27 0.01	
									CHANNELS 3 Zrotation Xrotation Yrotation
									End Site
									{
										OFFSET 0 -0.15 0
									}
								}
							}
						}
					}
					JOINT RightCollar
					{
						OFFSET 0 0.1 0	
						CHANNELS 3 Zrotation Xrotation Yrotation
						JOINT RightUpperArm
						{
							OFFSET -0.156 -0.02 0.03	
							CHANNELS 3 Zrotation Xrotation Yrotation
							JOINT RightForeArm
							{
								OFFSET -0.035 -0.27 -0.01	
								CHANNELS 3 Zrotation Xrotation Yrotation
								JOINT RightHand
								{
									OFFSET -0.01 -0.27 0.01	
									CHANNELS 3 Zrotation Xrotation Yrotation
									End Site
									{
										OFFSET 0 -0.15 0
									}
								}
							}
						}
					}
					JOINT Neck
					{
						OFFSET 0 0.1 0	
						CHANNELS 3 Zrotation Xrotation Yrotation
						JOINT Head
						{
							OFFSET 0 0.127 0.03	
							CHANNELS 3 Zrotation Xrotation Yrotation
							End Site
							{
								OFFSET 0 0.127 0.03
							}
						}
					}
				}
			}
		}
	}
	JOINT LeftHip
	{
		OFFSET 0 0 0	
		CHANNELS 3 Zrotation Xrotation Yrotation
		JOINT LeftThigh
		{
			OFFSET 0.088 -0.06 0	
			CHANNELS 3 Zrotation Xrotation Yrotation
			JOINT LeftLowerLeg
			{
				OFFSET 0 -0.39 0.02	
				CHANNELS 3 Zrotation Xrotation Yrotation
				JOINT LeftFootTop
				{
					OFFSET 0 -0.43 -0.02	
					CHANNELS 3 Zrotation Xrotation Yrotation
					JOINT LeftFootFront
					{
						OFFSET 0 -0.07 0.085	
						CHANNELS 3 Zrotation Xrotation Yrotation
						End Site
						{
							OFFSET 0 -0.005 0.09
						}
					}
				}
				JOINT LeftHeel
				{
					OFFSET 0 -0.43 -0.02	
					CHANNELS 3 Zrotation Xrotation Yrotation
					End Site
					{
						OFFSET 0 -0.075 -0.05
					}
				}
			}
		}
	}
	JOINT RightHip
	{
		OFFSET 0 0 0	
		CHANNELS 3 Zrotation Xrotation Yrotation
		JOINT RightThigh
		{
			OFFSET -0.088 -0.06 0	
			CHANNELS 3 Zrotation Xrotation Yrotation
			JOINT RightLowerLeg
			{
				OFFSET 0 -0.39 0.02	
				CHANNELS 3 Zrotation Xrotation Yrotation
				JOINT RightFootTop
				{
					OFFSET 0 -0.43 -0.02	
					CHANNELS 3 Zrotation Xrotation Yrotation
					JOINT RightFootFront
					{
						OFFSET 0 -0.07 0.085	
						CHANNELS 3 Zrotation Xrotation Yrotation
						End Site
						{
							OFFSET 0 -0.005 0.09
						}
					}
				}
				JOINT RightHeel
				{
					OFFSET 0 -0.43 -0.02	
					CHANNELS 3 Zrotation Xrotation Yrotation
					End Site
					{
						OFFSET 0 -0.075 -0.05
					}
				}
			}
		}
	}
}
MOTION
Frames: 18
Frame Time: 0.025
0.33966 0.93167 0.1047 -0 0 -0 -1.6654 4.06 42.121 3.0889 1.8905 -4.0954 3.0889 1.8905 -4.0954 2.5855 1.6029 -3.4331 -0 0 -0 35.539 24.121 -7.6543 -57.789 -19.239 -52.66 -22.138 -40.1 -9.2058 -0 0 -0 -30.445 -16.531 -15.232 147.64 -42.349 149.96 -25.591 -41.192 9.7818 -3.3245 -4.0989 -6.1748 -3.3245 -4.0989 -6.1748 -1.6654 4.06 42.121 -4.9698 -8.0453 5.0812 4.1758 13.657 -5.3253 0.25857 -10.358 -43.461 -0.0016511 -3.3001e-06 -0.0017901 -0 0 -0 -1.6654 4.06 42.121 -9.7693 -22.487 -5.3985 21.335 43.873 -16.446 -6.9061 -26.192 -31.691 0.00056903 0.0017001 0.0023553 -0 0 -0 
0.34154 0.93129 0.10464 -0 0 -0 -0.8225 2.0408 43.161 4.5115 4.0309 -3.4263 4.5115 4.0309 -3.4263 3.7724 3.4044 -2.8561 -0 0 -0 30.697 19.347 -8.2167 -55.804 -22.823 -52.113 -26.779 -43.019 -12.454 -0 0 -0 -28.86 -17.443 -9.1036 152.65 -51.55 164.87 -28.04 -38.63 7.7361 -4.4711 -6.2996 -7.6855 -4.4711 -6.2996 -7.6854 -0.8225 2.0408 43.161 -4.8926 -6.9178 3.1827 4.5589 15.432 -3.886 0.22777 -11.092 -44.039 -0.00079003 0.00058763 -0.0020735 -0 0 -0 -0.8225 2.0408 43.161 -9.3585 -21.471 -5.2383 19.011 43.503 -13.924 -5.5625 -24.215 -33.577 0.0013614 0.0024224 0.0025033 -0 0 -0 
0.34285 0.93047 0.10498 -0 0 -0 -0.44545 0.99786 44.327 5.4924 4.7894 -2.6817 5.4924 4.7894 -2.6817 4.5967 4.0408 -2.221 -0 0 -0 26.839 16.881 -9.4387 -53.315 -25.566 -51.616 -32.673 -45.101 -17.167 -0 0 -0 -28.384 -18.664 -5.5134 161.95 -63.247 -176.83 -32.613 -31.334 0.33495 -5.5322 -7.232 -9.1581 -5.5322 -7.232 -9.1581 -0.44545 0.99786 44.327 -4.7806 -7.4392 0.89706 4.7739 18.152 -2.5751 -0.036942 -12.112 -44.359 -0.00013267 0.001106 -0.0022054 -0 0 -0 -0.44545 0.99786 44.327 -8.8493 -20.994 -5.0406 14.803 40.216 -10.849 -3.281 -19.813 -34.852 0.0016163 0.0018719 0.0027521 -0 0 -0 
0.34365 0.92937 0.10592 -0 0 -0 -0.66023 1.0194 45.649 5.6431 4.3331 -1.8256 5.6431 4.3331 -1.8256 4.7294 3.6523 -1.5044 -0 0 -0 25.21 16.806 -10.237 -51.382 -25.821 -51.535 -38.302 -46.513 -22.862 -0 0 -0 -27.845 -20.099 -6.4311 166.89 -75.046 -168.15 -35.238 -22.886 -4.4198 -5.8979 -7.0402 -10.504 -5.8979 -7.0402 -10.504 -0.66023 1.0194 45.649 -4.7147 -9.2892 -0.56328 5.0229 21.178 -1.8758 -0.51893 -13.348 -45.228 -0.00069292 0.0011905 -0.002036 -0 0 -0 -0.66023 1.0194 45.649 -8.702 -21.152 -4.7523 10.821 35.082 -6.9594 -1.2414 -14.245 -37.719 0.001476 0.0016988 0.0028209 -0 0 -0 
0.34403 0.92816 0.10767 -0 0 -0 -0.93329 1.2845 47.031 5.0989 3.7856 -0.80785 5.0989 3.7856 -0.80784 4.2784 3.1849 -0.65579 -0 0 -0 26.184 16.765 -10.464 -50.332 -24.09 -51.11 -43.364 -47.106 -29.003 -0 0 -0 -27.697 -22.777 -13.459 108.17 -84.393 130.86 -37.117 -17.378 -4.0932 -5.5141 -6.7712 -11.969 -5.5141 -6.7712 -11.969 -0.93329 1.2845 47.031 -4.8134 -10.999 -0.92968 5.5116 23.844 -1.8387 -0.98571 -14.657 -46.651 -0.0011522 0.00072264 -0.0017867 -0 0 -0 -0.93329 1.2845 47.031 -8.4235 -20.885 -4.0627 7.6889 29.573 -0.98981 0.13962 -9.272 -44.009 0.0004152 0.00048532 0.0026126 -0 0 -0 
0.34408 0.92707 0.11033 -0 0 -0 -1.0023 1.3424 48.559 4.3844 3.6832 -0.036128 4.3844 3.6832 -0.036123 3.6819 3.0943 -0.01137 -0 0 -0 28.25 16.043 -10.219 -50.076 -22.209 -50.183 -47.046 -47.196 -34.156 -0 0 -0 -29.673 -27.304 -23.887 41.219 -73.518 58.992 -38.954 -15.914 -1.0837 -4.9077 -6.995 -13.222 -4.9077 -6.995 -13.222 -1.0023 1.3424 48.559 -5.1451 -12.028 -0.87852 6.3875 25.871 -2.6529 -1.3163 -15.763 -47.826 0.00067646 0.00054824 -0.0022771 -0 0 -0 -1.0023 1.3424 48.559 -8.0319 -20.103 -2.9518 5.4279 25.129 6.155 1.4537 -6.0229 -52.671 -0.00066406 -0.83114 0.0024772 -0 0 -0 
0.34394 0.92628 0.11392 -0 0 -0 -0.9093 1.2466 50.265 3.7727 3.9567 0.30748 3.7727 3.9567 0.30748 3.1696 3.3224 0.27576 -0 0 -0 30.244 15.309 -10.011 -50.33 -21.703 -49.735 -48.643 -47.662 -36.906 -0 0 -0 -34.394 -32.958 -34.131 28.907 -58.756 43.425 -40.462 -16.307 1.4265 -4.403 -7.6449 -14.064 -4.403 -7.6449 -14.064 -0.9093 1.2466 50.265 -5.5284 -12.719 -1.0108 7.4723 27.49 -3.9845 -1.6644 -16.591 -48.558 0.00192 -0.00011719 -0.0029168 -0 0 -0 -0.9093 1.2466 50.265 -8.1483 -19.617 -1.6896 4.2982 22.588 10.56 2.9146 -4.3963 -59.504 -0.00052983 -0.83021 0.0027112 -0 0 -0 
0.34374 0.92596 0.1184 -0 0 -0 -0.57113 1.0087 52.03 3.3823 4.6442 0.28739 3.3823 4.6442 0.28739 2.8416 3.9001 0.2598 -0 0 -0 31.572 14.47 -9.631 -50.705 -22.498 -50.261 -48.731 -48.937 -37.429 -0 0 -0 -41.881 -39.448 -42.357 18.885 -44.341 33.424 -41.544 -16.627 1.7936 -4.1659 -8.7499 -14.575 -4.1659 -8.7499 -14.575 -0.57113 1.0087 52.03 -5.7639 -13.15 -1.4255 8.5423 29.002 -5.4584 -2.1739 -17.305 -49 0.0014179 -0.0014292 -0.002492 -0 0 -0 -0.57113 1.0087 52.03 -8.853 -19.949 -0.62524 4.6224 22.408 10.191 3.7647 -3.7589 -62.016 3.3259e-06 -0.82805 0.0029101 -0 0 -0 
0.34361 0.92626 0.12365 -0 0 -0 0.09147 0.65511 53.876 3.2837 5.7022 -0.1013 3.2837 5.7022 -0.1013 2.7561 4.7904 -0.063004 -0 0 -0 31.976 13.279 -8.3254 -51.183 -23.565 -51.281 -48.427 -50.597 -36.991 -0 0 -0 -52.374 -45.744 -47.827 9.4798 -30.082 24.493 -42.495 -16.295 0.34634 -4.3179 -10.289 -14.77 -4.3179 -10.289 -14.77 0.09147 0.65511 53.876 -5.7812 -13.106 -1.9822 9.3532 30.341 -6.7634 -2.7896 -18.003 -49.514 0.00011862 -0.0017921 -0.0024052 -0 0 -0 0.09147 0.65511 53.876 -9.5113 -20.242 -0.47597 5.7375 23.851 6.9351 3.4793 -3.9568 -61.106 5.161e-05 -0.82653 0.0027404 -0 0 -0 
0.34372 0.92725 0.12954 -0 0 -0 1.0291 0.37196 55.952 3.3596 6.7088 -0.77553 3.3596 6.7088 -0.77554 2.8136 5.6386 -0.62438 -0 0 -0 31.807 12.352 -6.3332 -51.82 -24.197 -52.051 -48.626 -51.87 -36.911 -0 0 -0 -64.897 -50.234 -51.078 3.0759 -15.559 15.008 -43.526 -16.326 -1.9201 -4.8286 -11.823 -14.773 -4.8286 -11.823 -14.773 1.0291 0.37196 55.952 -5.5913 -12.438 -2.4467 9.7634 31.217 -7.4242 -3.5664 -18.662 -50.866 -0.00073263 -0.0010583 -0.0017277 -0 0 -0 1.0291 0.37196 55.952 -9.9825 -19.583 -1.7527 6.4968 25.435 3.7142 2.6641 -4.8011 -58.92 -0.00011196 -0.82612 0.0024974 -0 0 -0 
0.34413 0.92896 0.13589 -0 0 -0 2.0529 0.30615 58.327 3.4007 7.0981 -1.5918 3.4007 7.0981 -1.5918 2.8407 5.9689 -1.3075 -0 0 -0 31.524 12.85 -4.5183 -52.402 -24.243 -52.214 -49.657 -52.267 -37.76 -0 0 -0 -76.544 -52.482 -52.018 0.45782 -1.5263 4.5894 -44.416 -18.005 -4.2823 -5.5086 -12.698 -14.677 -5.5086 -12.698 -14.677 2.0529 0.30615 58.327 -5.2874 -11.36 -2.7173 9.8207 31.387 -7.2597 -4.5234 -19.009 -53.395 -0.00085493 -0.00063425 -0.00096154 -0 0 -0 2.0529 0.30615 58.327 -10.387 -17.875 -3.7981 6.4342 25.842 2.3031 2.064 -5.5637 -57.726 0.00027477 -0.82635 0.0025943 -0 0 -0 
0.3449 0.93134 0.14256 -0 0 -0 2.6763 0.54573 60.839 3.2406 6.5578 -2.4089 3.2406 6.5578 -2.4089 2.7015 5.518 -1.997 -0 0 -0 31.423 15.274 -3.2324 -52.76 -23.833 -51.999 -51.027 -51.904 -39.104 -0 0 -0 -84.21 -53.201 -50.464 0.32437 10.012 -4.8253 -44.759 -21.112 -7.1164 -6.0302 -12.605 -14.402 -6.0302 -12.605 -14.402 2.6763 0.54573 60.839 -4.8358 -10.457 -2.7278 9.3746 30.665 -6.0824 -5.4408 -18.651 -57.087 -0.00038707 -0.00068739 -0.00064275 -0 0 -0 2.6763 0.54573 60.839 -10.603 -15.854 -6.244 5.8565 25.29 3.1279 1.5356 -6.2123 -58.33 0.0014773 -0.82599 0.0029928 -0 0 -0 
0.34605 0.93429 0.14937 -0 0 -0 2.4603 1.0346 63.302 2.8869 5.19 -3.0838 2.8869 5.19 -3.0838 2.4051 4.3703 -2.5716 -0 0 -0 31.716 19.004 -2.5097 -53.004 -23.153 -51.808 -52.034 -51.142 -40.167 -0 0 -0 -87.199 -52.782 -48.747 0.46094 16.715 -10.165 -44.83 -25.008 -10.048 -6.2493 -11.739 -14.001 -6.2493 -11.739 -14.001 2.4603 1.0346 63.302 -4.0317 -10.147 -2.0819 8.2479 29.039 -3.7302 -6.0625 -17.485 -62.199 0.00047816 -0.00059139 -0.00055015 -0 0 -0 2.4603 1.0346 63.302 -10.241 -14.177 -8.9121 4.8173 23.896 4.9448 1.0736 -6.5821 -59.615 0.0022684 -0.82601 0.0030753 -0 0 -0 
0.34755 0.93764 0.1562 -0 0 -0 1.5239 1.6301 65.67 2.3908 3.3708 -3.5405 2.3908 3.3708 -3.5405 1.9939 2.8416 -2.964 -0 0 -0 32.664 22.947 -2.5411 -53.248 -22.461 -51.822 -52.358 -50.347 -40.439 -0 0 -0 -86.991 -51.282 -49.273 -0.66411 17.749 -10.012 -45.261 -28.712 -11.583 -6.2462 -10.425 -13.704 -6.2462 -10.425 -13.704 1.5239 1.6301 65.67 -2.9684 -10.226 -0.36327 6.5687 26.618 -0.53844 -6.1552 -15.72 -68.766 0.00041207 0.00014074 -0.00087907 -0 0 -0 1.5239 1.6301 65.67 -9.3211 -12.643 -11.157 3.6252 21.184 5.9056 0.92189 -6.3324 -60.362 0.0011832 -0.82611 0.0028492 -0 0 -0 
0.34932 0.94117 0.16292 -0 0 -0 0.16857 2.3987 67.995 1.7128 1.3133 -3.7469 1.7128 1.3133 -3.7469 1.433 1.1107 -3.1447 -0 0 -0 34.549 26.435 -3.8257 -53.45 -22.087 -52.093 -51.969 -49.698 -39.67 -0 0 -0 -85.779 -48.962 -51.298 -1.7654 15.043 -7.1656 -45.97 -31.919 -11.055 -6.1504 -8.6999 -13.73 -6.1504 -8.6999 -13.73 0.16857 2.3987 67.995 -2.1328 -10.451 2.2137 4.7104 23.583 2.5576 -5.6121 -13.663 -75.869 -0.00034345 0.00082275 -0.0012094 -0 0 -0 0.16857 2.3987 67.995 -8.2429 -11.259 -12.17 2.6795 17.393 5.0649 1.0889 -5.4835 -60.558 -0.00017778 -0.82576 0.0025668 -0 0 -0 
0.35128 0.94467 0.16943 -0 0 -0 -1.3326 3.3466 70.292 0.90588 -0.79918 -3.7592 0.90588 -0.79918 -3.7592 0.76448 -0.66735 -3.1585 -0 0 -0 37.139 29.19 -6.2982 -53.689 -22.138 -52.74 -50.855 -49.151 -37.898 -0 0 -0 -85.164 -46.511 -52.555 -2.2619 11.945 -4.787 -46.17 -34.388 -9.0876 -6.0945 -6.6206 -14.055 -6.0945 -6.6206 -14.055 -1.3326 3.3466 70.292 -1.9107 -10.664 4.6746 3.0109 20.145 5.0963 -4.646 -11.496 -82.331 -0.00052983 0.00063677 -0.0012834 -0 0 -0 -1.3326 3.3466 70.292 -7.2548 -9.963 -11.956 1.8344 12.932 2.8629 1.458 -4.1655 -60.628 -0.00044023 -0.82557 0.0022916 -0 0 -0 
0.35333 0.94793 0.17567 -0 0 -0 -2.6655 4.1446 72.441 0.20631 -2.6565 -3.7199 0.20631 -2.6565 -3.7199 0.18489 -2.2307 -3.125 -0 0 -0 39.696 31.098 -8.9877 -54.25 -22.279 -53.609 -49.152 -48.42 -35.615 -0 0 -0 -85.576 -44.765 -52.091 -3.3755 10.371 -3.2787 -45.46 -35.212 -7.1431 -6.1672 -4.4916 -14.41 -6.1672 -4.4916 -14.41 -2.6655 4.1446 72.441 -2.2251 -10.4 6.055 1.7632 16.289 7.2409 -3.6391 -9.2706 -87.413 -0.00099147 0.00066313 -0.0013708 -0 0 -0 -2.6655 4.1446 72.441 -6.2729 -8.5031 -11.072 0.93074 8.2401 0.34599 1.8275 -2.5589 -60.937 -8.3542e-05 -0.82517 0.0015149 -0 0 -0 
0.35539 0.95075 0.18159 -0 0 -0 -3.7472 4.5027 74.259 -0.18406 -4.1547 -3.7895 -0.18406 -4.1547 -3.7895 -0.13606 -3.4909 -3.1813 -0 0 -0 41.609 32.476 -10.874 -55.312 -22.11 -54.303 -47.151 -47.182 -33.36 -0 0 -0 -86.598 -44.146 -50.019 -5.1824 10.612 -2.3027 -44.329 -34.215 -6.2945 -6.329 -2.5483 -14.458 -6.329 -2.5483 -14.458 -3.7472 4.5027 74.259 -2.6563 -9.4766 6.6052 1.3132 12.09 8.2859 -2.9264 -7.0712 -90.543 -0.0015372 0.0011756 -0.001729 -0 0 -0 -3.7472 4.5027 74.259 -4.9969 -6.7901 -10.047 -0.089516 3.5814 -1.8085 2.0542 -0.84569 -61.478 -0.00084302 -0.82416 0.00079293 -0 0 -0 
